<svg width="151" height="38" viewBox="0 0 151 38" fill="none" xmlns="http://www.w3.org/2000/svg">
<path d="M48.3278 21.9952C47.9068 21.7484 47.4797 21.6357 47.0526 21.654C44.783 21.7576 44.4504 24.9896 44.3071 26.3908C43.9227 30.1254 44.5694 33.068 46.0795 34.4601C46.592 34.9353 47.1807 35.1851 47.7634 35.1851C47.8854 35.1851 48.0044 35.1729 48.1264 35.1516C49.9843 34.8135 51.2167 33.4244 51.6041 31.2373C52.2082 27.8194 50.6157 23.3294 48.3278 21.9921V21.9952ZM50.5456 31.0514C50.332 32.2608 49.7066 33.7717 47.9342 34.0946C47.5712 34.1616 47.1807 34.0154 46.8116 33.6712C46.3479 33.2416 44.8714 31.4566 45.3809 26.4791C45.4938 25.3734 45.7592 22.7841 47.1014 22.7232C47.1167 22.7232 47.1289 22.7232 47.1441 22.7232C47.3455 22.7232 47.5621 22.7902 47.7878 22.9212C49.67 24.0209 51.0642 28.1241 50.5486 31.0514H50.5456Z" fill="white"/>
<path d="M60.2252 6.86184L60.2191 6.8527C59.9293 6.42624 59.612 6.015 59.2582 5.62205C58.7548 5.06155 58.1874 4.53761 57.5376 4.05631C57.4797 4.01367 57.4003 3.94665 57.3027 3.86136C56.3357 3.02671 53.3918 0.486195 48.9837 2.16768C45.8782 3.35265 43.7122 5.21081 38.9075 10.8036L38.456 11.3306C35.1248 15.2114 33.1144 17.557 30.5092 17.5874H30.4512C28.2182 17.5874 26.638 16.0826 23.5202 13.1065C22.3427 11.9855 21.0096 10.7122 19.3439 9.23786C12.3458 3.0328 8.82847 -0.0773482 5.92124 0.00794475C4.64913 0.047545 3.11773 0.388717 1.51921 1.37568C1.13483 1.61023 0.74435 1.88439 0.356922 2.19815C0.356922 2.19815 0.356922 2.19815 0.353871 2.19815C0.128126 2.38092 0 2.65812 0 2.9475V37.9938H60.8109V8.57684C60.8109 7.95542 60.6035 7.35228 60.2252 6.86184ZM1.9768 36.8393C1.9768 36.7692 1.9829 36.7083 1.9829 36.6565C2.05306 33.4976 2.58082 30.6586 3.55396 28.2186C4.30442 26.333 6.01581 23.0584 9.02676 22.3212C10.5856 21.9374 12.2574 22.5009 13.0017 23.6615C13.38 24.2525 13.5722 25.0414 13.5722 26.0071C13.5722 28.2003 12.5746 30.1925 10.9731 31.2038C10.3172 31.6181 9.58503 31.9075 8.81017 32.2121C7.52586 32.7178 6.19885 33.2387 5.20435 34.3871C4.62168 35.0573 4.11833 35.8828 3.69429 36.8423H1.97985L1.9768 36.8393ZM7.77296 36.8393H4.87793C5.21045 36.163 5.58872 35.5751 6.01276 35.0847C6.83337 34.1373 7.98346 33.6834 9.20065 33.2052C9.98771 32.8945 10.8022 32.5746 11.5435 32.1055C13.4563 30.8992 14.6429 28.5598 14.646 26.001C14.646 24.8282 14.3958 23.8412 13.9047 23.0766C12.9041 21.52 10.7931 20.7798 8.77051 21.2733C5.29281 22.1262 3.38618 25.739 2.55641 27.8165C1.90663 29.4492 1.44599 31.2465 1.18059 33.1869V23.2746C1.92189 21.7637 2.91029 20.4265 4.22205 19.3481C6.75711 17.2615 9.98161 16.2867 12.6326 16.8107C14.6673 17.2097 16.3025 18.4647 17.3641 20.4387C19.2524 23.9478 18.5203 28.3404 15.5856 31.1155C14.466 32.1725 13.1664 33.0102 11.7174 33.6042C10.128 34.2561 8.80102 35.3527 7.77601 36.8332L7.77296 36.8393ZM18.6484 36.8393C19.3409 34.3048 20.6435 32.2213 22.3183 30.9662C23.6667 29.9549 25.2682 29.6929 27.004 29.6929C27.9345 29.6929 28.9015 29.7691 29.8869 29.8452C33.5354 30.1316 37.306 30.424 39.6824 26.6681C40.2406 25.7847 40.7135 24.749 41.1711 23.7468C42.5652 20.6976 43.8831 17.8159 47.5987 18.0657C50.3016 18.2484 52.1411 19.802 53.2088 21.0723C55.1886 23.43 56.2564 26.9209 55.9269 29.964C55.695 32.1177 54.548 34.643 52.6353 36.8393H18.6484ZM58.4803 36.8393H54.0294C55.6005 34.8806 56.7262 32.5746 56.9946 30.0798C57.3576 26.7077 56.2228 22.9913 54.0294 20.3838C52.3058 18.3337 50.1063 17.161 47.6689 16.9965C43.2089 16.6919 41.6073 20.2041 40.1918 23.3021C39.7281 24.3164 39.2919 25.2729 38.7702 26.0954C36.7416 29.3061 33.45 29.0471 29.9662 28.776C27.062 28.5506 24.0602 28.3161 21.6685 30.1103C19.7924 31.5176 18.3433 33.8296 17.5898 36.6199C17.5715 36.687 17.5502 36.7631 17.5319 36.8393H9.11828C9.87484 35.9193 10.851 35.1212 12.117 34.6034C13.6881 33.9606 15.1036 33.0498 16.3177 31.9014C19.6032 28.7913 20.4208 23.8717 18.3037 19.936C17.0865 17.6697 15.1951 16.2258 12.8339 15.7628C9.87179 15.181 6.30867 16.241 3.53261 18.5257C2.60217 19.2902 1.82732 20.1706 1.17449 21.1362V12.019C2.43744 10.8797 3.9841 10.1213 5.88158 9.89888C10.851 9.31706 13.9962 12.3541 17.3244 15.5709C18.0688 16.2898 18.8375 17.033 19.6276 17.7367L20.0212 18.087C25.2652 22.7385 26.5098 23.8351 29.6062 23.8077C34.0815 23.7559 37.1138 20.4904 40.0454 17.3316C41.9154 15.318 43.8465 13.2375 46.0826 12.1195C48.4315 10.9437 52.074 11.3458 54.9141 14.8885C57.0983 17.6118 57.5498 21.2611 57.9861 24.7886L58.0593 25.3826C58.6145 29.8056 58.7457 33.6621 58.4711 36.8423L58.4803 36.8393ZM59.6364 36.8393H59.5693C59.5937 36.5346 59.6181 36.2209 59.6364 35.901V36.8393ZM59.6364 30.8505C59.5541 29.1538 59.3924 27.2956 59.1331 25.2486L59.0599 24.6546C58.6267 21.1484 58.1325 17.1762 55.7591 14.2153C54.5297 12.68 52.919 11.5042 51.2229 10.898C49.2766 10.2035 47.3364 10.2949 45.6067 11.157C43.1936 12.3632 41.1955 14.5169 39.2614 16.6005C36.3542 19.7319 33.6117 22.6867 29.597 22.7324C26.9095 22.769 25.8509 21.8186 20.7381 17.2828L20.3445 16.9325C19.5727 16.2471 18.8101 15.5099 18.0749 14.8002C14.7131 11.5499 11.2385 8.18997 5.75956 8.83272C3.9597 9.0429 2.44659 9.67346 1.17754 10.6178V3.33437C1.17754 3.0724 1.30261 2.82566 1.51615 2.6703H1.51921C2.90418 1.66506 4.38983 1.13198 5.95175 1.08325C8.4441 1.00709 11.8425 4.02281 18.627 10.039C20.2774 11.5042 21.6044 12.7684 22.7728 13.8833C26.0248 16.9812 27.8155 18.6841 30.5214 18.6597C33.6147 18.6231 35.8661 15.9973 39.2705 12.0282L39.719 11.5012C44.3864 6.07288 46.4608 4.27868 49.365 3.17292C53.1722 1.71685 55.6615 3.8644 56.598 4.67469C56.7231 4.77826 56.8207 4.8666 56.8909 4.91838C57.8488 5.63119 58.6236 6.45365 59.2551 7.36141C59.5022 7.71477 59.6334 8.13819 59.6334 8.57075V30.8535L59.6364 30.8505Z" fill="white"/>
<path d="M68.8109 0.379326H73.9886L82.1381 19.7628H82.2829L90.36 0.379326H95.5377V25.983H92.0592V4.937H91.9868L83.3306 25.983H81.0142L72.358 4.937H72.2856V25.983H68.8109V0.379326Z" fill="white"/>
<path d="M101.294 0.379344H110.24C112.05 0.379344 113.639 0.58478 115.003 0.995656C116.367 1.40653 117.548 1.95437 118.553 2.63916C119.556 3.32776 120.39 4.11527 121.053 5.00931C121.716 5.89954 122.242 6.8164 122.63 7.75609C123.015 8.69578 123.293 9.63547 123.465 10.5752C123.632 11.5148 123.72 12.3822 123.72 13.1774C123.72 14.8171 123.419 16.4035 122.813 17.9329C122.211 19.4661 121.316 20.8242 120.135 22.0188C118.95 23.2134 117.483 24.1721 115.734 24.8949C113.982 25.6178 111.962 25.9792 109.669 25.9792H101.302V0.375542L101.294 0.379344ZM104.773 22.7264H109.154C110.625 22.7264 112.019 22.5286 113.338 22.1291C114.652 21.7297 115.807 21.1362 116.797 20.3373C117.788 19.5421 118.573 18.5454 119.152 17.3546C119.731 16.1638 120.02 14.7676 120.02 13.1774C120.02 12.3594 119.887 11.4007 119.62 10.3012C119.354 9.20557 118.854 8.16316 118.119 7.17402C117.384 6.18487 116.363 5.3479 115.06 4.6593C113.757 3.9707 112.065 3.6283 109.989 3.6283H104.773V22.7226V22.7264Z" fill="white"/>
<path d="M134.072 3.63209H125.815V0.379326H145.806V3.63209H137.55V25.9792H134.072V3.63209Z" fill="white"/>
<path d="M68.8109 30.4683H69.7596V37.4418H68.8109V30.4683Z" fill="white"/>
<path d="M73.5276 30.4683H74.7696L78.6177 36.2016H78.6367V30.4683H79.5854V37.4418H78.3815L74.4953 31.7085H74.4763V37.4418H73.5276V30.4683Z" fill="white"/>
<path d="M89.3009 33.5423V36.9815C89.1294 37.088 88.9351 37.1793 88.7179 37.2554C88.5008 37.3353 88.276 37.4 88.0436 37.457C87.8112 37.5141 87.5749 37.5521 87.3349 37.5788C87.0949 37.6054 86.8701 37.6168 86.6606 37.6168C86.07 37.6168 85.5404 37.5179 85.0756 37.3201C84.6108 37.1222 84.2222 36.8559 83.9022 36.5211C83.5821 36.1864 83.3383 35.7983 83.1706 35.3532C83.003 34.9119 82.9192 34.4401 82.9192 33.9494C82.9192 33.432 83.0106 32.9488 83.1897 32.4999C83.3688 32.0548 83.6202 31.6667 83.9403 31.3357C84.2603 31.0086 84.6413 30.7499 85.0909 30.5634C85.5366 30.377 86.0281 30.2819 86.5615 30.2819C87.2054 30.2819 87.7312 30.3618 88.1388 30.5216C88.5465 30.6814 88.8894 30.9058 89.1637 31.1874L88.4931 31.9064C88.2036 31.6325 87.8988 31.4385 87.5749 31.3319C87.2511 31.2254 86.9158 31.1683 86.5577 31.1683C86.1576 31.1683 85.7957 31.2406 85.4719 31.389C85.148 31.5374 84.8737 31.7352 84.6451 31.9863C84.4165 32.2374 84.2374 32.5303 84.1117 32.8689C83.986 33.2075 83.925 33.5651 83.925 33.9456C83.925 34.326 83.9936 34.7064 84.1308 35.045C84.2679 35.3836 84.4584 35.6766 84.7022 35.9277C84.9461 36.1787 85.2318 36.3728 85.5595 36.5135C85.8871 36.6543 86.2453 36.7266 86.6339 36.7266C86.9692 36.7266 87.2854 36.6961 87.5864 36.6315C87.8874 36.5706 88.1388 36.4793 88.3522 36.3614V34.4211H86.8015V33.5347H89.297L89.3009 33.5423Z" fill="white"/>
<path d="M93.0003 30.4683H97.5074V31.3547H93.9451V33.432H97.2598V34.3184H93.9451V36.5554H97.6827V37.4418H92.9965V30.4683H93.0003Z" fill="white"/>
<path d="M101.001 30.4683H102.243L106.091 36.2016H106.11V30.4683H107.059V37.4418H105.855L101.969 31.7085H101.95V37.4418H101.001V30.4683Z" fill="white"/>
<path d="M110.823 30.4683H111.772V37.4418H110.823V30.4683Z" fill="white"/>
<path d="M115.54 30.4683H120.047V31.3547H116.485V33.432H119.799V34.3184H116.485V36.5554H120.222V37.4418H115.536V30.4683H115.54Z" fill="white"/>
<path d="M123.541 30.4683H125.998C126.444 30.4683 126.814 30.5292 127.103 30.6509C127.393 30.7727 127.621 30.9286 127.789 31.1151C127.957 31.3015 128.075 31.5107 128.139 31.7466C128.204 31.9787 128.238 32.2031 128.238 32.42C128.238 32.6368 128.2 32.8575 128.12 33.0667C128.04 33.276 127.93 33.4624 127.781 33.6298C127.633 33.7972 127.454 33.9379 127.24 34.0521C127.027 34.1662 126.787 34.2385 126.524 34.2651L128.505 37.4456H127.32L125.545 34.3716H124.489V37.4456H123.541V30.4721V30.4683ZM124.486 33.5423H125.728C125.911 33.5423 126.093 33.5271 126.276 33.4966C126.459 33.4662 126.619 33.4129 126.76 33.333C126.901 33.2531 127.015 33.139 127.099 32.9944C127.183 32.8461 127.229 32.6559 127.229 32.42C127.229 32.1841 127.187 31.9901 127.099 31.8455C127.015 31.6971 126.901 31.583 126.76 31.5069C126.619 31.427 126.459 31.3738 126.276 31.3433C126.093 31.3129 125.914 31.2977 125.728 31.2977H124.486V33.5423Z" fill="white"/>
<path d="M134.746 37.6206C134.212 37.6206 133.725 37.5255 133.275 37.3391C132.829 37.1526 132.445 36.894 132.125 36.5668C131.805 36.2396 131.557 35.8515 131.374 35.4026C131.191 34.9575 131.104 34.4743 131.104 33.9531C131.104 33.4319 131.195 32.9526 131.374 32.5037C131.553 32.0586 131.805 31.6705 132.125 31.3395C132.445 31.0123 132.826 30.7536 133.275 30.5672C133.721 30.3808 134.212 30.2857 134.746 30.2857C135.279 30.2857 135.767 30.3808 136.216 30.5672C136.666 30.7536 137.047 31.0123 137.367 31.3395C137.687 31.6667 137.935 32.0547 138.118 32.5037C138.297 32.9488 138.388 33.4319 138.388 33.9531C138.388 34.4743 138.297 34.9537 138.118 35.4026C137.935 35.8477 137.687 36.2358 137.367 36.5668C137.047 36.894 136.666 37.1526 136.216 37.3391C135.771 37.5255 135.279 37.6206 134.746 37.6206ZM134.746 36.7342C135.146 36.7342 135.508 36.6619 135.832 36.5135C136.156 36.3651 136.43 36.1673 136.658 35.9162C136.887 35.6651 137.066 35.3722 137.192 35.0336C137.318 34.695 137.379 34.3374 137.379 33.9531C137.379 33.5689 137.318 33.2113 137.192 32.8765C137.066 32.5379 136.891 32.245 136.658 31.9939C136.43 31.7428 136.152 31.545 135.832 31.3966C135.508 31.2482 135.146 31.1759 134.746 31.1759C134.346 31.1759 133.984 31.2482 133.66 31.3966C133.336 31.545 133.062 31.7428 132.833 31.9939C132.605 32.245 132.426 32.5379 132.3 32.8765C132.174 33.2151 132.113 33.5727 132.113 33.9531C132.113 34.3336 132.174 34.695 132.3 35.0336C132.426 35.3722 132.601 35.6651 132.833 35.9162C133.066 36.1673 133.34 36.3651 133.66 36.5135C133.98 36.6619 134.346 36.7342 134.746 36.7342Z" fill="white"/>
<path d="M141.928 35.9848C142.099 36.2397 142.316 36.4299 142.583 36.5516C142.85 36.6734 143.124 36.7342 143.406 36.7342C143.562 36.7342 143.726 36.7114 143.89 36.6619C144.053 36.6125 144.202 36.5402 144.339 36.4413C144.473 36.3424 144.583 36.2206 144.671 36.0761C144.755 35.9315 144.8 35.7641 144.8 35.5739C144.8 35.3038 144.716 35.0983 144.545 34.9576C144.374 34.8168 144.16 34.6989 143.909 34.6038C143.657 34.5086 143.379 34.4173 143.082 34.3298C142.781 34.2423 142.507 34.1168 142.255 33.9608C142.004 33.8048 141.79 33.5918 141.619 33.3255C141.447 33.0592 141.364 32.7016 141.364 32.2488C141.364 32.0472 141.409 31.8303 141.497 31.5983C141.585 31.37 141.726 31.157 141.916 30.9667C142.107 30.7765 142.35 30.6167 142.651 30.4874C142.952 30.358 143.311 30.2972 143.73 30.2972C144.111 30.2972 144.476 30.3504 144.823 30.4532C145.17 30.5559 145.478 30.7727 145.741 31.0923L144.972 31.7923C144.854 31.6097 144.686 31.4613 144.469 31.3472C144.252 31.2369 144.004 31.1798 143.73 31.1798C143.455 31.1798 143.25 31.214 143.074 31.2825C142.899 31.351 142.762 31.4385 142.655 31.5488C142.549 31.6591 142.476 31.7733 142.434 31.8988C142.392 32.0244 142.369 32.1385 142.369 32.245C142.369 32.5418 142.453 32.7662 142.625 32.926C142.796 33.0858 143.01 33.2113 143.261 33.3103C143.512 33.4092 143.791 33.4967 144.088 33.5766C144.389 33.6565 144.663 33.7668 144.915 33.9076C145.166 34.0483 145.379 34.2385 145.551 34.4782C145.722 34.7179 145.806 35.0489 145.806 35.4674C145.806 35.8021 145.741 36.1027 145.612 36.3728C145.482 36.6429 145.311 36.8674 145.094 37.0538C144.876 37.2364 144.621 37.3772 144.324 37.4761C144.027 37.575 143.711 37.6245 143.375 37.6245C142.93 37.6245 142.503 37.5446 142.103 37.3886C141.703 37.2326 141.383 36.9891 141.146 36.6581L141.928 35.9886V35.9848Z" fill="white"/>
</svg>
