<svg width="25" height="25" viewBox="0 0 25 25" fill="none" xmlns="http://www.w3.org/2000/svg">
<path d="M8.83255 2.16656L8.83266 2.16645C9.80165 1.19686 11.0117 0.708008 12.5 0.708008C13.9883 0.708008 15.1983 1.19686 16.1673 2.16645L16.1674 2.16656C17.1365 3.13557 17.625 4.34538 17.625 5.83301C17.625 7.32136 17.1364 8.53149 16.1674 9.50045C15.1985 10.4694 13.9884 10.958 12.5 10.958C11.0116 10.958 9.80152 10.4694 8.83255 9.50045C7.86358 8.53149 7.375 7.32136 7.375 5.83301C7.375 4.34538 7.86354 3.13557 8.83255 2.16656ZM1.10265 18.8004L1.10283 18.8001C1.50736 18.1989 2.05285 17.7367 2.75162 17.4119C4.41898 16.6469 6.06182 16.0681 7.68036 15.6738L7.6805 15.6738C9.29654 15.2795 10.9028 15.083 12.5 15.083C14.0972 15.083 15.6961 15.2795 17.2975 15.6735L17.2977 15.6736C18.9026 16.0679 20.5532 16.6469 22.2497 17.4126C22.9478 17.7373 23.4929 18.1993 23.8972 18.8001L23.8974 18.8004C24.2976 19.3944 24.5 20.0668 24.5 20.833V22.042C24.5 22.4912 24.3454 22.8645 24.0214 23.1885C23.6975 23.5124 23.3242 23.667 22.875 23.667H2.125C1.67578 23.667 1.30252 23.5124 0.978553 23.1885C0.654585 22.8645 0.5 22.4912 0.5 22.042V20.833C0.5 20.0668 0.702402 19.3944 1.10265 18.8004ZM1.583 22.083V22.583H2.083H22.917H23.417V22.083V20.833C23.417 20.3297 23.2532 19.8571 22.9532 19.4235L22.9529 19.4232C22.6543 18.9924 22.2588 18.6492 21.7777 18.392L21.7777 18.3919L21.7655 18.3857C20.1789 17.5931 18.627 17.0228 17.1104 16.6794C15.6017 16.3377 14.0647 16.167 12.5 16.167C10.9353 16.167 9.3916 16.3377 7.86956 16.6791C6.33891 17.0225 4.78004 17.5928 3.19347 18.3858L3.18093 18.392L3.16877 18.399C2.71624 18.6578 2.34047 18.9999 2.04707 19.4232L2.04682 19.4235C1.74682 19.8571 1.583 20.3297 1.583 20.833V22.083ZM12.5 9.87501C13.6269 9.87501 14.5961 9.48598 15.3746 8.70756C16.153 7.92914 16.542 6.95987 16.542 5.83301C16.542 4.70623 16.153 3.73725 15.3746 2.95945C14.5961 2.18103 13.6269 1.79201 12.5 1.79201C11.3731 1.79201 10.4039 2.18103 9.62545 2.95945C8.84698 3.73725 8.458 4.70623 8.458 5.83301C8.458 6.95987 8.84702 7.92914 9.62545 8.70756C10.4039 9.48598 11.3731 9.87501 12.5 9.87501Z" fill="#525252" stroke="#525252"/>
</svg>
